<svg xmlns="http://www.w3.org/2000/svg" width="69" height="49" viewBox="0 0 69 49" fill="none">
<path d="M62.9355 0.242188H6.06445C2.72739 0.242188 0 2.95758 0 6.30664V42.6934C0 46.0436 2.72914 48.7578 6.06445 48.7578H62.9355C66.2726 48.7578 69 46.0424 69 42.6934V6.30664C69 2.95677 66.2713 0.242188 62.9355 0.242188ZM62.0043 4.28516L36.0665 30.3076C35.2762 31.1003 33.7242 31.1008 32.9335 30.3076L6.99568 4.28516H62.0043ZM4.04297 41.9501V7.04987L21.4365 24.5L4.04297 41.9501ZM6.99568 44.7148L24.2907 27.3635L30.0701 33.1618C32.4385 35.5378 36.5625 35.5369 38.93 33.1618L44.7094 27.3636L62.0043 44.7148H6.99568ZM64.957 41.9501L47.5635 24.5L64.957 7.04987V41.9501Z" fill="#004C64"/>
</svg>