<svg xmlns="http://www.w3.org/2000/svg" width="23" height="23" viewBox="0 0 23 23" fill="none">
<path d="M22.8538 11.0526C22.6483 10.7715 17.7526 4.17032 11.4999 4.17032C5.24714 4.17032 0.351195 10.7715 0.145947 11.0524C0.0511072 11.1823 0 11.339 0 11.4998C0 11.6607 0.0511072 11.8174 0.145947 11.9473C0.351195 12.2284 5.24714 18.8296 11.4999 18.8296C17.7526 18.8296 22.6483 12.2284 22.8538 11.9476C22.9487 11.8177 22.9999 11.661 22.9999 11.5001C22.9999 11.3392 22.9487 11.1825 22.8538 11.0526ZM11.4999 17.3132C6.89407 17.3132 2.90496 12.9318 1.7241 11.4995C2.90343 10.0659 6.88418 5.68679 11.4999 5.68679C16.1054 5.68679 20.0943 10.0674 21.2756 11.5005C20.0963 12.934 16.1155 17.3132 11.4999 17.3132Z" fill="#004C64"/>
<path d="M11.4999 6.95056C8.99134 6.95056 6.95041 8.9915 6.95041 11.5C6.95041 14.0086 8.99134 16.0495 11.4999 16.0495C14.0084 16.0495 16.0493 14.0086 16.0493 11.5C16.0493 8.9915 14.0084 6.95056 11.4999 6.95056ZM11.4999 14.533C9.82743 14.533 8.46693 13.1724 8.46693 11.5C8.46693 9.82763 9.82748 8.46708 11.4999 8.46708C13.1723 8.46708 14.5328 9.82763 14.5328 11.5C14.5328 13.1724 13.1723 14.533 11.4999 14.533Z" fill="#004C64"/>
</svg>