<svg xmlns="http://www.w3.org/2000/svg" width="195" height="41" viewBox="0 0 195 41" fill="none">
<path d="M16.0313 14C15.8906 12.8125 15.3203 11.8906 14.3203 11.2344C13.3203 10.5781 12.0938 10.25 10.6406 10.25C9.57813 10.25 8.64844 10.4219 7.85156 10.7656C7.0625 11.1094 6.44531 11.582 6 12.1836C5.5625 12.7852 5.34375 13.4687 5.34375 14.2344C5.34375 14.875 5.49609 15.4258 5.80078 15.8867C6.11328 16.3398 6.51172 16.7187 6.99609 17.0234C7.48047 17.3203 7.98828 17.5664 8.51953 17.7617C9.05078 17.9492 9.53906 18.1016 9.98437 18.2187L12.4219 18.875C13.0469 19.0391 13.7422 19.2656 14.5078 19.5547C15.2813 19.8437 16.0195 20.2383 16.7227 20.7383C17.4336 21.2305 18.0195 21.8633 18.4805 22.6367C18.9414 23.4102 19.1719 24.3594 19.1719 25.4844C19.1719 26.7812 18.832 27.9531 18.1523 29C17.4805 30.0469 16.4961 30.8789 15.1992 31.4961C13.9102 32.1133 12.3438 32.4219 10.5 32.4219C8.78125 32.4219 7.29297 32.1445 6.03516 31.5898C4.78516 31.0352 3.80078 30.2617 3.08203 29.2695C2.37109 28.2773 1.96875 27.125 1.875 25.8125H4.875C4.95313 26.7187 5.25781 27.4687 5.78906 28.0625C6.32813 28.6484 7.00781 29.0859 7.82813 29.375C8.65625 29.6562 9.54688 29.7969 10.5 29.7969C11.6094 29.7969 12.6055 29.6172 13.4883 29.2578C14.3711 28.8906 15.0703 28.3828 15.5859 27.7344C16.1016 27.0781 16.3594 26.3125 16.3594 25.4375C16.3594 24.6406 16.1367 23.9922 15.6914 23.4922C15.2461 22.9922 14.6602 22.5859 13.9336 22.2734C13.207 21.9609 12.4219 21.6875 11.5781 21.4531L8.625 20.6094C6.75 20.0703 5.26563 19.3008 4.17187 18.3008C3.07813 17.3008 2.53125 15.9922 2.53125 14.375C2.53125 13.0312 2.89453 11.8594 3.62109 10.8594C4.35547 9.85156 5.33984 9.07031 6.57422 8.51562C7.81641 7.95312 9.20312 7.67187 10.7344 7.67187C12.2813 7.67187 13.6563 7.94922 14.8594 8.50391C16.0625 9.05078 17.0156 9.80078 17.7187 10.7539C18.4297 11.707 18.8047 12.7891 18.8438 14H16.0313ZM30.8877 32.375C29.2627 32.375 27.8369 31.9883 26.6104 31.2148C25.3916 30.4414 24.4385 29.3594 23.751 27.9687C23.0713 26.5781 22.7314 24.9531 22.7314 23.0937C22.7314 21.2187 23.0713 19.582 23.751 18.1836C24.4385 16.7852 25.3916 15.6992 26.6104 14.9258C27.8369 14.1523 29.2627 13.7656 30.8877 13.7656C32.5127 13.7656 33.9346 14.1523 35.1533 14.9258C36.3799 15.6992 37.333 16.7852 38.0127 18.1836C38.7002 19.582 39.0439 21.2187 39.0439 23.0937C39.0439 24.9531 38.7002 26.5781 38.0127 27.9687C37.333 29.3594 36.3799 30.4414 35.1533 31.2148C33.9346 31.9883 32.5127 32.375 30.8877 32.375ZM30.8877 29.8906C32.1221 29.8906 33.1377 29.5742 33.9346 28.9414C34.7314 28.3086 35.3213 27.4766 35.7041 26.4453C36.0869 25.4141 36.2783 24.2969 36.2783 23.0937C36.2783 21.8906 36.0869 20.7695 35.7041 19.7305C35.3213 18.6914 34.7314 17.8516 33.9346 17.2109C33.1377 16.5703 32.1221 16.25 30.8877 16.25C29.6533 16.25 28.6377 16.5703 27.8408 17.2109C27.0439 17.8516 26.4541 18.6914 26.0713 19.7305C25.6885 20.7695 25.4971 21.8906 25.4971 23.0937C25.4971 24.2969 25.6885 25.4141 26.0713 26.4453C26.4541 27.4766 27.0439 28.3086 27.8408 28.9414C28.6377 29.5742 29.6533 29.8906 30.8877 29.8906ZM50.5781 32.375C48.8906 32.375 47.4375 31.9766 46.2188 31.1797C45 30.3828 44.0625 29.2852 43.4063 27.8867C42.75 26.4883 42.4219 24.8906 42.4219 23.0937C42.4219 21.2656 42.7578 19.6523 43.4297 18.2539C44.1094 16.8477 45.0547 15.75 46.2656 14.9609C47.4844 14.1641 48.9063 13.7656 50.5312 13.7656C51.7969 13.7656 52.9375 14 53.9531 14.4688C54.9688 14.9375 55.8008 15.5937 56.4492 16.4375C57.0977 17.2812 57.5 18.2656 57.6563 19.3906H54.8906C54.6797 18.5703 54.2109 17.8437 53.4844 17.2109C52.7656 16.5703 51.7969 16.25 50.5781 16.25C49.5 16.25 48.5547 16.5312 47.7422 17.0937C46.9375 17.6484 46.3086 18.4336 45.8555 19.4492C45.4102 20.457 45.1875 21.6406 45.1875 23C45.1875 24.3906 45.4063 25.6016 45.8438 26.6328C46.2891 27.6641 46.9141 28.4648 47.7188 29.0352C48.5313 29.6055 49.4844 29.8906 50.5781 29.8906C51.2969 29.8906 51.9492 29.7656 52.5352 29.5156C53.1211 29.2656 53.6172 28.9062 54.0234 28.4375C54.4297 27.9687 54.7188 27.4062 54.8906 26.75H57.6563C57.5 27.8125 57.1133 28.7695 56.4961 29.6211C55.8867 30.4648 55.0781 31.1367 54.0703 31.6367C53.0703 32.1289 51.9063 32.375 50.5781 32.375ZM61.6992 32V14H64.4648V32H61.6992ZM63.1055 11C62.5664 11 62.1016 10.8164 61.7109 10.4492C61.3281 10.082 61.1367 9.64063 61.1367 9.125C61.1367 8.60938 61.3281 8.16797 61.7109 7.80078C62.1016 7.43359 62.5664 7.25 63.1055 7.25C63.6445 7.25 64.1055 7.43359 64.4883 7.80078C64.8789 8.16797 65.0742 8.60938 65.0742 9.125C65.0742 9.64063 64.8789 10.082 64.4883 10.4492C64.1055 10.8164 63.6445 11 63.1055 11ZM74.8271 32.4219C73.6865 32.4219 72.6514 32.207 71.7217 31.7773C70.792 31.3398 70.0537 30.7109 69.5068 29.8906C68.96 29.0625 68.6865 28.0625 68.6865 26.8906C68.6865 25.8594 68.8896 25.0234 69.2959 24.3828C69.7021 23.7344 70.2451 23.2266 70.9248 22.8594C71.6045 22.4922 72.3545 22.2187 73.1748 22.0391C74.0029 21.8516 74.835 21.7031 75.6709 21.5938C76.7646 21.4531 77.6514 21.3477 78.3311 21.2773C79.0186 21.1992 79.5186 21.0703 79.8311 20.8906C80.1514 20.7109 80.3115 20.3984 80.3115 19.9531V19.8594C80.3115 18.7031 79.9951 17.8047 79.3623 17.1641C78.7373 16.5234 77.7881 16.2031 76.5146 16.2031C75.1943 16.2031 74.1592 16.4922 73.4092 17.0703C72.6592 17.6484 72.1318 18.2656 71.8271 18.9219L69.2021 17.9844C69.6709 16.8906 70.2959 16.0391 71.0771 15.4297C71.8662 14.8125 72.7256 14.3828 73.6553 14.1406C74.5928 13.8906 75.5146 13.7656 76.4209 13.7656C76.999 13.7656 77.6631 13.8359 78.4131 13.9766C79.1709 14.1094 79.9014 14.3867 80.6045 14.8086C81.3154 15.2305 81.9053 15.8672 82.374 16.7187C82.8428 17.5703 83.0771 18.7109 83.0771 20.1406V32H80.3115V29.5625H80.1709C79.9834 29.9531 79.6709 30.3711 79.2334 30.8164C78.7959 31.2617 78.2139 31.6406 77.4873 31.9531C76.7607 32.2656 75.874 32.4219 74.8271 32.4219ZM75.249 29.9375C76.3428 29.9375 77.2646 29.7227 78.0146 29.293C78.7725 28.8633 79.3428 28.3086 79.7256 27.6289C80.1162 26.9492 80.3115 26.2344 80.3115 25.4844V22.9531C80.1943 23.0937 79.9365 23.2227 79.5381 23.3398C79.1475 23.4492 78.6943 23.5469 78.1787 23.6328C77.6709 23.7109 77.1748 23.7812 76.6904 23.8437C76.2139 23.8984 75.8271 23.9453 75.5303 23.9844C74.8115 24.0781 74.1396 24.2305 73.5146 24.4414C72.8975 24.6445 72.3975 24.9531 72.0146 25.3672C71.6396 25.7734 71.4521 26.3281 71.4521 27.0312C71.4521 27.9922 71.8076 28.7187 72.5186 29.2109C73.2373 29.6953 74.1475 29.9375 75.249 29.9375ZM90.8906 8V32H88.125V8H90.8906Z" fill="white"/>
<path d="M16.0313 14L15.0382 14.1176L15.1427 15H16.0313V14ZM14.3203 11.2344L13.7717 12.0704L13.7717 12.0704L14.3203 11.2344ZM7.85156 10.7656L7.45547 9.84741L7.45217 9.84884L7.85156 10.7656ZM6 12.1836L5.19623 11.5886L5.19126 11.5954L6 12.1836ZM5.80078 15.8867L4.96656 16.4382L4.97198 16.4464L4.97757 16.4545L5.80078 15.8867ZM6.99609 17.0234L6.46361 17.87L6.47353 17.876L6.99609 17.0234ZM8.51953 17.7617L8.17444 18.7004L8.18671 18.7047L8.51953 17.7617ZM9.98437 18.2187L10.2444 17.2531L10.2389 17.2517L9.98437 18.2187ZM12.4219 18.875L12.1619 19.8406L12.168 19.8422L12.4219 18.875ZM14.5078 19.5547L14.1546 20.4902L14.1577 20.4914L14.5078 19.5547ZM16.7227 20.7383L16.1431 21.5533L16.1534 21.5605L16.7227 20.7383ZM18.4805 22.6367L19.3395 22.1248L19.3395 22.1248L18.4805 22.6367ZM18.1523 29L17.3136 28.4554L17.3108 28.4599L18.1523 29ZM15.1992 31.4961L14.7695 30.5931L14.7674 30.5941L15.1992 31.4961ZM6.03516 31.5898L5.62955 32.5039L5.63166 32.5048L6.03516 31.5898ZM3.08203 29.2695L2.26915 29.852L2.27219 29.8562L3.08203 29.2695ZM1.875 25.8125V24.8125H0.801024L0.877541 25.8837L1.875 25.8125ZM4.875 25.8125L5.87131 25.7266L5.7925 24.8125H4.875V25.8125ZM5.78906 28.0625L5.04375 28.7294L5.05313 28.7396L5.78906 28.0625ZM7.82813 29.375L7.49575 30.3182L7.50654 30.3219L7.82813 29.375ZM13.4883 29.2578L13.8653 30.184L13.8723 30.1811L13.4883 29.2578ZM15.5859 27.7344L16.3687 28.3568L16.3723 28.3522L15.5859 27.7344ZM15.6914 23.4922L16.4382 22.8271L16.4382 22.8271L15.6914 23.4922ZM13.9336 22.2734L13.5385 23.1921L13.5385 23.1921L13.9336 22.2734ZM11.5781 21.4531L11.3034 22.4147L11.3105 22.4166L11.5781 21.4531ZM8.625 20.6094L8.34869 21.5704L8.35028 21.5709L8.625 20.6094ZM4.17187 18.3008L3.49711 19.0388L3.49711 19.0388L4.17187 18.3008ZM3.62109 10.8594L2.8129 10.2705L2.81208 10.2716L3.62109 10.8594ZM6.57422 8.51562L6.9841 9.42777L6.98673 9.42658L6.57422 8.51562ZM14.8594 8.50391L14.4407 9.41205L14.4456 9.41427L14.8594 8.50391ZM17.7187 10.7539L16.914 11.3476L16.9172 11.3518L17.7187 10.7539ZM18.8438 14V15H19.8765L19.8432 13.9678L18.8438 14ZM17.0243 13.8824C16.8489 12.4014 16.1159 11.2166 14.869 10.3983L13.7717 12.0704C14.5247 12.5646 14.9323 13.2236 15.0382 14.1176L17.0243 13.8824ZM14.869 10.3983C13.6739 9.61406 12.2464 9.25 10.6406 9.25V11.25C11.9411 11.25 12.9667 11.5422 13.7717 12.0704L14.869 10.3983ZM10.6406 9.25C9.47167 9.25 8.40214 9.43905 7.45547 9.84741L8.24765 11.6838C8.89474 11.4047 9.68458 11.25 10.6406 11.25V9.25ZM7.45217 9.84884C6.52688 10.2519 5.76061 10.8262 5.19626 11.5886L6.80374 12.7786C7.13001 12.3378 7.59812 11.9668 8.25095 11.6824L7.45217 9.84884ZM5.19126 11.5954C4.62561 12.3732 4.34375 13.264 4.34375 14.2344H6.34375C6.34375 13.6735 6.49939 13.1971 6.80874 12.7718L5.19126 11.5954ZM4.34375 14.2344C4.34375 15.0391 4.53734 15.7888 4.96656 16.4382L6.635 15.3353C6.45485 15.0628 6.34375 14.7109 6.34375 14.2344H4.34375ZM4.97757 16.4545C5.37014 17.0237 5.86909 17.4959 6.46364 17.8699L7.52855 16.177C7.15435 15.9416 6.85643 15.656 6.62399 15.319L4.97757 16.4545ZM6.47353 17.876C7.01389 18.2072 7.58113 18.4822 8.17447 18.7003L8.8646 16.8231C8.39543 16.6507 7.94705 16.4334 7.51866 16.1708L6.47353 17.876ZM8.18671 18.7047C8.73828 18.8994 9.25309 19.0604 9.72988 19.1858L10.2389 17.2517C9.82503 17.1428 9.36328 16.9991 8.85235 16.8187L8.18671 18.7047ZM9.7244 19.1844L12.1619 19.8406L12.6818 17.9094L10.2443 17.2531L9.7244 19.1844ZM12.168 19.8422C12.7519 19.9955 13.4134 20.2104 14.1546 20.4902L14.861 18.6191C14.071 18.3209 13.3419 18.0826 12.6758 17.9078L12.168 19.8422ZM14.1577 20.4914C14.8461 20.7487 15.5077 21.1014 16.1431 21.5532L17.3022 19.9233C16.5314 19.3752 15.7164 18.9388 14.8579 18.618L14.1577 20.4914ZM16.1534 21.5605C16.7418 21.9678 17.2307 22.493 17.6215 23.1487L19.3395 22.1248C18.8084 21.2336 18.1254 20.4931 17.2919 19.9161L16.1534 21.5605ZM17.6214 23.1487C17.9697 23.733 18.1719 24.495 18.1719 25.4844H20.1719C20.1719 24.2237 19.9131 23.0873 19.3395 22.1248L17.6214 23.1487ZM18.1719 25.4844C18.1719 26.5959 17.8838 27.5772 17.3136 28.4555L18.9911 29.5445C19.7803 28.329 20.1719 26.9666 20.1719 25.4844H18.1719ZM17.3108 28.4599C16.7544 29.3267 15.9245 30.0435 14.7695 30.5931L15.6289 32.3991C17.0677 31.7143 18.2065 30.767 18.9939 29.5401L17.3108 28.4599ZM14.7674 30.5941C13.6463 31.1309 12.2361 31.4219 10.5 31.4219V33.4219C12.4514 33.4219 14.174 33.0957 15.6311 32.398L14.7674 30.5941ZM10.5 31.4219C8.8865 31.4219 7.54175 31.1613 6.43866 30.6749L5.63166 32.5048C7.04419 33.1277 8.676 33.4219 10.5 33.4219V31.4219ZM6.44076 30.6758C5.33285 30.1842 4.49546 29.5161 3.89187 28.6829L2.27219 29.8562C3.1061 31.0073 4.23746 31.8862 5.62955 32.5039L6.44076 30.6758ZM3.8949 28.6871C3.2999 27.8567 2.95412 26.8845 2.87246 25.7413L0.877541 25.8837C0.98338 27.3655 1.44229 28.698 2.26916 29.852L3.8949 28.6871ZM1.875 26.8125H4.875V24.8125H1.875V26.8125ZM3.8787 25.8984C3.97266 26.9884 4.34821 27.9518 5.04382 28.7293L6.5343 27.3957C6.16741 26.9857 5.93359 26.4491 5.87131 25.7266L3.8787 25.8984ZM5.05313 28.7396C5.71294 29.4567 6.53577 29.9799 7.49578 30.3182L8.16048 28.4318C7.47986 28.192 6.94331 27.8401 6.52499 27.3854L5.05313 28.7396ZM7.50654 30.3219C8.44712 30.6413 9.4473 30.7969 10.5 30.7969V28.7969C9.64645 28.7969 8.86538 28.6712 8.14971 28.4281L7.50654 30.3219ZM10.5 30.7969C11.7177 30.7969 12.8448 30.5994 13.8653 30.184L13.1112 28.3316C12.3661 28.6349 11.501 28.7969 10.5 28.7969V30.7969ZM13.8723 30.1811C14.887 29.7591 15.7325 29.1568 16.3686 28.3568L14.8032 27.112C14.4081 27.6088 13.8551 28.0222 13.1042 28.3345L13.8723 30.1811ZM16.3723 28.3522C17.0334 27.5108 17.3594 26.5249 17.3594 25.4375H15.3594C15.3594 26.1001 15.1698 26.6455 14.7996 27.1166L16.3723 28.3522ZM17.3594 25.4375C17.3594 24.4446 17.0766 23.5439 16.4382 22.8271L14.9446 24.1573C15.1969 24.4405 15.3594 24.8367 15.3594 25.4375H17.3594ZM16.4382 22.8271C15.8795 22.1999 15.1655 21.7147 14.3287 21.3548L13.5385 23.1921C14.1548 23.4572 14.6127 23.7845 14.9446 24.1573L16.4382 22.8271ZM14.3287 21.3548C13.5566 21.0227 12.7284 20.7348 11.8458 20.4896L11.3105 22.4166C12.1153 22.6402 12.8575 22.8992 13.5385 23.1921L14.3287 21.3548ZM11.8528 20.4916L8.89972 19.6479L8.35028 21.5709L11.3034 22.4146L11.8528 20.4916ZM8.90131 19.6483C7.12953 19.1389 5.7964 18.4311 4.84664 17.5628L3.49711 19.0388C4.73485 20.1705 6.37047 21.0017 8.34869 21.5704L8.90131 19.6483ZM4.84664 17.5628C3.98032 16.7707 3.53125 15.74 3.53125 14.375H1.53125C1.53125 16.2443 2.17593 17.8309 3.49711 19.0388L4.84664 17.5628ZM3.53125 14.375C3.53125 13.223 3.83861 12.2613 4.4301 11.4472L2.81208 10.2716C1.95045 11.4575 1.53125 12.8395 1.53125 14.375H3.53125ZM4.42929 11.4483C5.05262 10.5929 5.89442 9.91743 6.9841 9.42776L6.16433 7.60349C4.78527 8.22319 3.65831 9.11026 2.8129 10.2705L4.42929 11.4483ZM6.98673 9.42658C8.08423 8.9296 9.32785 8.67187 10.7344 8.67187V6.67187C9.0784 6.67187 7.54858 6.97665 6.16171 7.60467L6.98673 9.42658ZM10.7344 8.67187C12.1607 8.67187 13.3891 8.9272 14.4407 9.41204L15.2781 7.59577C13.9234 6.97124 12.4018 6.67187 10.7344 6.67187V8.67187ZM14.4456 9.41427C15.5119 9.89895 16.3234 10.5469 16.914 11.3476L18.5235 10.1603C17.7078 9.05463 16.6131 8.20261 15.2732 7.59354L14.4456 9.41427ZM16.9172 11.3518C17.5034 12.1378 17.8117 13.0215 17.8443 14.0322L19.8432 13.9678C19.7977 12.5566 19.356 11.2763 18.5203 10.156L16.9172 11.3518ZM18.8438 13H16.0313V15H18.8438V13ZM26.6104 31.2148L26.0745 32.0592L26.077 32.0607L26.6104 31.2148ZM23.751 27.9687L22.8525 28.4079L22.8545 28.4119L23.751 27.9687ZM23.751 18.1836L22.8536 17.7424L22.8516 17.7465L23.751 18.1836ZM26.6104 14.9258L26.077 14.0799L26.0745 14.0815L26.6104 14.9258ZM35.1533 14.9258L34.6175 15.7701L34.6199 15.7717L35.1533 14.9258ZM38.0127 18.1836L37.1133 18.6207L37.1153 18.6248L38.0127 18.1836ZM38.0127 27.9687L37.1163 27.5256L37.1143 27.5296L38.0127 27.9687ZM35.1533 31.2148L34.6199 30.369L34.6175 30.3705L35.1533 31.2148ZM33.9346 28.9414L33.3127 28.1583L33.3127 28.1583L33.9346 28.9414ZM35.7041 26.4453L36.6416 26.7933L36.6416 26.7933L35.7041 26.4453ZM35.7041 19.7305L36.6424 19.3848L36.6424 19.3848L35.7041 19.7305ZM33.9346 17.2109L34.5611 16.4316L34.5611 16.4316L33.9346 17.2109ZM27.8408 17.2109L27.2143 16.4316L27.2143 16.4316L27.8408 17.2109ZM26.0713 19.7305L25.1329 19.3848L25.1329 19.3848L26.0713 19.7305ZM26.0713 26.4453L25.1338 26.7933L25.1338 26.7933L26.0713 26.4453ZM27.8408 28.9414L28.4627 28.1583L28.4627 28.1583L27.8408 28.9414ZM30.8877 31.375C29.428 31.375 28.1919 31.0299 27.1437 30.369L26.077 32.0607C27.482 32.9467 29.0974 33.375 30.8877 33.375V31.375ZM27.1462 30.3705C26.0937 29.7026 25.26 28.7647 24.6474 27.5256L22.8545 28.4119C23.6169 29.954 24.6895 31.1802 26.0745 32.0592L27.1462 30.3705ZM24.6494 27.5296C24.0487 26.3006 23.7314 24.8312 23.7314 23.0937H21.7314C21.7314 25.0751 22.0939 26.8557 22.8525 28.4079L24.6494 27.5296ZM23.7314 23.0937C23.7314 21.3394 24.0491 19.8578 24.6504 18.6207L22.8516 17.7465C22.0934 19.3063 21.7314 21.0981 21.7314 23.0937H23.7314ZM24.6484 18.6248C25.2614 17.3778 26.0951 16.4371 27.1462 15.7701L26.0745 14.0815C24.6881 14.9613 23.6155 16.1925 22.8536 17.7424L24.6484 18.6248ZM27.1437 15.7717C28.1919 15.1107 29.428 14.7656 30.8877 14.7656V12.7656C29.0974 12.7656 27.482 13.194 26.077 14.0799L27.1437 15.7717ZM30.8877 14.7656C32.3475 14.7656 33.5785 15.1108 34.6175 15.7701L35.6891 14.0815C34.2906 13.1939 32.6779 12.7656 30.8877 12.7656V14.7656ZM34.6199 15.7717C35.6773 16.4384 36.509 17.3774 37.1133 18.6207L38.9121 17.7465C38.157 16.1929 37.0825 14.96 35.6867 14.0799L34.6199 15.7717ZM37.1153 18.6248C37.7229 19.8608 38.0439 21.341 38.0439 23.0937H40.0439C40.0439 21.0965 39.6775 19.3033 38.9101 17.7424L37.1153 18.6248ZM38.0439 23.0937C38.0439 24.8296 37.7234 26.2975 37.1163 27.5256L38.9091 28.4119C39.677 26.8588 40.0439 25.0766 40.0439 23.0937H38.0439ZM37.1143 27.5296C36.5104 28.7651 35.6787 29.7013 34.6199 30.369L35.6867 32.0607C37.081 31.1815 38.1556 29.9536 38.9111 28.4079L37.1143 27.5296ZM34.6175 30.3705C33.5785 31.0299 32.3475 31.375 30.8877 31.375V33.375C32.6779 33.375 34.2906 32.9467 35.6891 32.0592L34.6175 30.3705ZM30.8877 30.8906C32.2982 30.8906 33.5474 30.5258 34.5565 29.7245L33.3127 28.1583C32.728 28.6226 31.9459 28.8906 30.8877 28.8906V30.8906ZM34.5565 29.7245C35.5078 28.969 36.2006 27.9813 36.6416 26.7933L34.7666 26.0973C34.442 26.9718 33.9551 27.6482 33.3127 28.1583L34.5565 29.7245ZM36.6416 26.7933C37.0695 25.6407 37.2783 24.4045 37.2783 23.0937H35.2783C35.2783 24.1892 35.1044 25.1874 34.7666 26.0973L36.6416 26.7933ZM37.2783 23.0937C37.2783 21.7829 37.0694 20.5437 36.6424 19.3848L34.7658 20.0762C35.1044 20.9953 35.2783 21.9984 35.2783 23.0937H37.2783ZM36.6424 19.3848C36.2023 18.1902 35.511 17.1952 34.5611 16.4316L33.308 17.9903C33.9519 18.5079 34.4402 19.1926 34.7658 20.0762L36.6424 19.3848ZM34.5611 16.4316C33.5519 15.6203 32.3011 15.25 30.8877 15.25V17.25C31.9431 17.25 32.7234 17.5204 33.308 17.9903L34.5611 16.4316ZM30.8877 15.25C29.4743 15.25 28.2234 15.6203 27.2143 16.4316L28.4674 17.9903C29.0519 17.5204 29.8323 17.25 30.8877 17.25V15.25ZM27.2143 16.4316C26.2644 17.1952 25.5731 18.1902 25.1329 19.3848L27.0096 20.0762C27.3351 19.1926 27.8235 18.5079 28.4674 17.9903L27.2143 16.4316ZM25.1329 19.3848C24.706 20.5437 24.4971 21.7829 24.4971 23.0937H26.4971C26.4971 21.9984 26.671 20.9953 27.0096 20.0762L25.1329 19.3848ZM24.4971 23.0937C24.4971 24.4045 24.7059 25.6407 25.1338 26.7933L27.0088 26.0973C26.671 25.1874 26.4971 24.1892 26.4971 23.0937H24.4971ZM25.1338 26.7933C25.5748 27.9813 26.2676 28.969 27.2189 29.7245L28.4627 28.1583C27.8203 27.6482 27.3334 26.9718 27.0088 26.0973L25.1338 26.7933ZM27.2189 29.7245C28.228 30.5258 29.4771 30.8906 30.8877 30.8906V28.8906C29.8295 28.8906 29.0474 28.6226 28.4627 28.1583L27.2189 29.7245ZM46.2188 31.1797L45.6715 32.0167L45.6715 32.0167L46.2188 31.1797ZM43.4297 18.2539L42.5293 17.8187L42.5283 17.8208L43.4297 18.2539ZM46.2656 14.9609L46.8116 15.7988L46.8129 15.7979L46.2656 14.9609ZM56.4492 16.4375L57.2421 15.8281L57.2421 15.8281L56.4492 16.4375ZM57.6563 19.3906V20.3906H58.8047L58.6467 19.2531L57.6563 19.3906ZM54.8906 19.3906L53.9221 19.6397L54.1152 20.3906H54.8906V19.3906ZM53.4844 17.2109L52.819 17.9575L52.8276 17.965L53.4844 17.2109ZM47.7422 17.0937L48.3097 17.9171L48.3114 17.9159L47.7422 17.0937ZM45.8555 19.4492L44.9422 19.0418L44.9408 19.0451L45.8555 19.4492ZM45.8438 26.6328L44.9231 27.0234L44.9257 27.0292L45.8438 26.6328ZM47.7188 29.0352L47.1405 29.851L47.1442 29.8536L47.7188 29.0352ZM52.5352 29.5156L52.1427 28.5958L52.1427 28.5958L52.5352 29.5156ZM54.0234 28.4375L54.7791 29.0924L54.7791 29.0924L54.0234 28.4375ZM54.8906 26.75V25.75H54.1188L53.9233 26.4966L54.8906 26.75ZM57.6563 26.75L58.6456 26.8955L58.8141 25.75H57.6563V26.75ZM56.4961 29.6211L55.6864 29.0342L55.6854 29.0356L56.4961 29.6211ZM54.0703 31.6367L54.5119 32.5339L54.5147 32.5325L54.0703 31.6367ZM50.5781 31.375C49.0534 31.375 47.7975 31.0171 46.766 30.3427L45.6715 32.0167C47.0775 32.936 48.7279 33.375 50.5781 33.375V31.375ZM46.766 30.3427C45.7121 29.6536 44.894 28.7031 44.3115 27.4619L42.501 28.3115C43.231 29.8672 44.2879 31.112 45.6715 32.0167L46.766 30.3427ZM44.3115 27.4619C43.7271 26.2164 43.4219 24.7676 43.4219 23.0937H41.4219C41.4219 25.0136 41.7729 26.7602 42.501 28.3115L44.3115 27.4619ZM43.4219 23.0937C43.4219 21.389 43.7347 19.9282 44.3311 18.687L42.5283 17.8208C41.7809 19.3765 41.4219 21.1422 41.4219 23.0937H43.4219ZM44.33 18.6891C44.9371 17.4331 45.7655 16.4804 46.8116 15.7988L45.7197 14.1231C44.3439 15.0196 43.2817 16.2622 42.5293 17.8187L44.33 18.6891ZM46.8129 15.7979C47.8504 15.1195 49.0773 14.7656 50.5312 14.7656V12.7656C48.7352 12.7656 47.1183 13.2086 45.7184 14.124L46.8129 15.7979ZM50.5312 14.7656C51.6712 14.7656 52.6661 14.9761 53.5341 15.3767L54.3722 13.5608C53.2089 13.0239 51.9225 12.7656 50.5312 12.7656V14.7656ZM53.5341 15.3767C54.4105 15.7812 55.1116 16.338 55.6563 17.0469L57.2421 15.8281C56.49 14.8495 55.527 14.0938 54.3722 13.5608L53.5341 15.3767ZM55.6563 17.0469C56.192 17.7439 56.5317 18.563 56.6658 19.5282L58.6467 19.2531C58.4683 17.9683 58.0033 16.8186 57.2421 15.8281L55.6563 17.0469ZM57.6563 18.3906H54.8906V20.3906H57.6563V18.3906ZM55.8591 19.1416C55.591 18.0991 54.9986 17.2037 54.1412 16.4569L52.8276 17.965C53.4233 18.4838 53.7683 19.0415 53.9221 19.6397L55.8591 19.1416ZM54.1497 16.4644C53.203 15.6206 51.9748 15.25 50.5781 15.25V17.25C51.6189 17.25 52.3282 17.52 52.819 17.9575L54.1497 16.4644ZM50.5781 15.25C49.316 15.25 48.168 15.5827 47.173 16.2716L48.3114 17.9159C48.9414 17.4798 49.684 17.25 50.5781 17.25V15.25ZM47.1746 16.2704C46.1987 16.9431 45.4597 17.882 44.9422 19.0418L46.7687 19.8567C47.1575 18.9851 47.6763 18.3537 48.3097 17.9171L47.1746 16.2704ZM44.9408 19.0451C44.4277 20.2063 44.1875 21.5331 44.1875 23H46.1875C46.1875 21.7481 46.3926 20.7078 46.7702 19.8534L44.9408 19.0451ZM44.1875 23C44.1875 24.4934 44.4223 25.8426 44.9232 27.0234L46.7643 26.2423C46.3902 25.3605 46.1875 24.2878 46.1875 23H44.1875ZM44.9257 27.0292C45.4334 28.2049 46.1663 29.1606 47.1405 29.851L48.297 28.2193C47.6618 27.7691 47.1448 27.1232 46.7618 26.2364L44.9257 27.0292ZM47.1442 29.8536C48.1421 30.5541 49.3007 30.8906 50.5781 30.8906V28.8906C49.6681 28.8906 48.9204 28.6569 48.2933 28.2167L47.1442 29.8536ZM50.5781 30.8906C51.4145 30.8906 52.2026 30.7447 52.9276 30.4354L52.1427 28.5958C51.6958 28.7865 51.1793 28.8906 50.5781 28.8906V30.8906ZM52.9276 30.4354C53.6493 30.1275 54.2707 29.679 54.7791 29.0924L53.2677 27.7826C52.9636 28.1335 52.5929 28.4038 52.1427 28.5958L52.9276 30.4354ZM54.7791 29.0924C55.2949 28.4973 55.651 27.7938 55.858 27.0034L53.9233 26.4966C53.7865 27.0187 53.5644 27.4402 53.2677 27.7826L54.7791 29.0924ZM54.8906 27.75H57.6563V25.75H54.8906V27.75ZM56.6669 26.6045C56.5336 27.5111 56.207 28.316 55.6864 29.0342L57.3058 30.2079C58.0196 29.223 58.4664 28.1139 58.6456 26.8955L56.6669 26.6045ZM55.6854 29.0356C55.1787 29.7372 54.5003 30.3071 53.6259 30.7409L54.5147 32.5325C55.656 31.9663 56.5947 31.1925 57.3068 30.2066L55.6854 29.0356ZM53.6287 30.7395C52.79 31.1523 51.7822 31.375 50.5781 31.375V33.375C52.0303 33.375 53.3506 33.1055 54.5119 32.5339L53.6287 30.7395ZM61.6992 32H60.6992V33H61.6992V32ZM61.6992 14V13H60.6992V14H61.6992ZM64.4648 14H65.4648V13H64.4648V14ZM64.4648 32V33H65.4648V32H64.4648ZM61.7109 10.4492L61.0187 11.1709L61.026 11.1778L61.7109 10.4492ZM61.7109 7.80078L61.026 7.07212L61.0187 7.0791L61.7109 7.80078ZM64.4883 7.80078L63.796 8.5225L63.8034 8.52941L64.4883 7.80078ZM64.4883 10.4492L63.8033 9.72055L63.7961 9.72754L64.4883 10.4492ZM62.6992 32V14H60.6992V32H62.6992ZM61.6992 15H64.4648V13H61.6992V15ZM63.4648 14V32H65.4648V14H63.4648ZM64.4648 31H61.6992V33H64.4648V31ZM63.1055 10C62.8194 10 62.5999 9.91239 62.3958 9.72059L61.026 11.1778C61.6032 11.7204 62.3134 12 63.1055 12V10ZM62.4032 9.72754C62.2106 9.54284 62.1367 9.35949 62.1367 9.125H60.1367C60.1367 9.92176 60.4456 10.6212 61.0187 11.1709L62.4032 9.72754ZM62.1367 9.125C62.1367 8.89051 62.2106 8.70716 62.4032 8.52246L61.0187 7.0791C60.4456 7.62877 60.1367 8.32824 60.1367 9.125H62.1367ZM62.3958 8.52941C62.5999 8.33761 62.8194 8.25 63.1055 8.25V6.25C62.3135 6.25 61.6032 6.52958 61.026 7.07215L62.3958 8.52941ZM63.1055 8.25C63.3912 8.25 63.6028 8.33708 63.7961 8.52246L65.1805 7.0791C64.6081 6.5301 63.8979 6.25 63.1055 6.25V8.25ZM63.8034 8.52941C64.0019 8.71606 64.0742 8.89744 64.0742 9.125H66.0742C66.0742 8.32131 65.7559 7.61988 65.1732 7.07215L63.8034 8.52941ZM64.0742 9.125C64.0742 9.35256 64.0019 9.53394 63.8034 9.72059L65.1732 11.1778C65.7559 10.6301 66.0742 9.92869 66.0742 9.125H64.0742ZM63.7961 9.72754C63.6028 9.91292 63.3912 10 63.1055 10V12C63.8979 12 64.6082 11.7199 65.1805 11.1709L63.7961 9.72754ZM71.7217 31.7773L71.2959 32.6822L71.3021 32.6851L71.7217 31.7773ZM69.5068 29.8906L68.6724 30.4417L68.6748 30.4453L69.5068 29.8906ZM69.2959 24.3828L70.1404 24.9184L70.1433 24.9137L69.2959 24.3828ZM73.1748 22.0391L73.3888 23.0159L73.3956 23.0144L73.1748 22.0391ZM75.6709 21.5938L75.5434 20.6019L75.5412 20.6022L75.6709 21.5938ZM78.3311 21.2773L78.434 22.2721L78.444 22.2709L78.3311 21.2773ZM79.8311 20.8906L79.3418 20.0184L79.3326 20.0237L79.8311 20.8906ZM79.3623 17.1641L78.6465 17.8624L78.6509 17.8668L79.3623 17.1641ZM73.4092 17.0703L74.0197 17.8623L74.0197 17.8623L73.4092 17.0703ZM71.8271 18.9219L71.4908 19.8636L72.35 20.1705L72.7342 19.343L71.8271 18.9219ZM69.2021 17.9844L68.283 17.5905L67.8639 18.5683L68.8658 18.9261L69.2021 17.9844ZM71.0771 15.4297L71.6922 16.2182L71.6932 16.2174L71.0771 15.4297ZM73.6553 14.1406L73.9074 15.1083L73.9129 15.1069L73.6553 14.1406ZM78.4131 13.9766L78.2288 14.9595L78.2405 14.9615L78.4131 13.9766ZM80.6045 14.8086L80.09 15.6661L80.0942 15.6686L80.6045 14.8086ZM82.374 16.7187L81.498 17.201L81.498 17.201L82.374 16.7187ZM83.0771 32V33H84.0771V32H83.0771ZM80.3115 32H79.3115V33H80.3115V32ZM80.3115 29.5625H81.3115V28.5625H80.3115V29.5625ZM80.1709 29.5625V28.5625H79.5417L79.2694 29.1298L80.1709 29.5625ZM79.2334 30.8164L79.9467 31.5172L79.9467 31.5172L79.2334 30.8164ZM77.4873 31.9531L77.0922 31.0345L77.0922 31.0345L77.4873 31.9531ZM78.0146 29.293L77.5214 28.4231L77.5175 28.4253L78.0146 29.293ZM79.7256 27.6289L78.8585 27.1306L78.8543 27.1382L79.7256 27.6289ZM80.3115 22.9531H81.3115V20.1911L79.5433 22.3129L80.3115 22.9531ZM79.5381 23.3398L79.8077 24.3029L79.8203 24.2992L79.5381 23.3398ZM78.1787 23.6328L78.3308 24.6213L78.3431 24.6192L78.1787 23.6328ZM76.6904 23.8437L76.8044 24.8373L76.8184 24.8355L76.6904 23.8437ZM75.5303 23.9844L75.6596 24.976L75.6607 24.9758L75.5303 23.9844ZM73.5146 24.4414L73.8273 25.3913L73.8344 25.3889L73.5146 24.4414ZM72.0146 25.3672L71.2804 24.6883L71.2798 24.6889L72.0146 25.3672ZM72.5186 29.2109L71.9493 30.0332L71.9597 30.0402L72.5186 29.2109ZM74.8271 31.4219C73.8148 31.4219 72.9251 31.2319 72.1412 30.8696L71.3021 32.6851C72.3776 33.1821 73.5582 33.4219 74.8271 33.4219V31.4219ZM72.1475 30.8725C71.3753 30.5091 70.7804 29.9982 70.3389 29.3359L68.6748 30.4453C69.327 31.4237 70.2087 32.1705 71.2959 32.6822L72.1475 30.8725ZM70.3413 29.3396C69.9207 28.7027 69.6865 27.9027 69.6865 26.8906H67.6865C67.6865 28.2223 67.9992 29.4223 68.6724 30.4417L70.3413 29.3396ZM69.6865 26.8906C69.6865 25.983 69.8661 25.351 70.1404 24.9184L68.4514 23.8473C67.9132 24.6959 67.6865 25.7358 67.6865 26.8906H69.6865ZM70.1433 24.9137C70.4569 24.4133 70.871 24.025 71.4001 23.7392L70.4495 21.9796C69.6192 22.4281 68.9474 23.0555 68.4485 23.8519L70.1433 24.9137ZM71.4001 23.7392C71.9908 23.4201 72.6518 23.1773 73.3888 23.0159L72.9608 21.0622C72.0572 21.2602 71.2181 21.5643 70.4495 21.9796L71.4001 23.7392ZM73.3956 23.0144C74.1939 22.8336 74.9955 22.6906 75.8006 22.5853L75.5412 20.6022C74.6744 20.7156 73.812 20.8695 72.954 21.0637L73.3956 23.0144ZM75.7984 22.5856C76.8883 22.4455 77.7659 22.3411 78.434 22.272L78.2282 20.2827C77.5368 20.3542 76.641 20.4608 75.5434 20.6019L75.7984 22.5856ZM78.444 22.2709C79.1653 22.189 79.8337 22.0426 80.3295 21.7575L79.3326 20.0237C79.2034 20.098 78.8718 20.2095 78.2181 20.2837L78.444 22.2709ZM80.3203 21.7628C81.0281 21.3657 81.3115 20.6692 81.3115 19.9531H79.3115C79.3115 20.0586 79.2924 20.083 79.3015 20.0654C79.3061 20.0563 79.3143 20.044 79.3257 20.0324C79.3368 20.0211 79.3442 20.0171 79.3418 20.0185L80.3203 21.7628ZM81.3115 19.9531V19.8594H79.3115V19.9531H81.3115ZM81.3115 19.8594C81.3115 18.5181 80.9399 17.3381 80.0737 16.4613L78.6509 17.8668C79.0503 18.2712 79.3115 18.8881 79.3115 19.8594H81.3115ZM80.0781 16.4657C79.1972 15.5629 77.9422 15.2031 76.5146 15.2031V17.2031C77.634 17.2031 78.2774 17.484 78.6465 17.8624L80.0781 16.4657ZM76.5146 15.2031C75.0588 15.2031 73.781 15.5211 72.7987 16.2783L74.0197 17.8623C74.5374 17.4633 75.3298 17.2031 76.5146 17.2031V15.2031ZM72.7987 16.2783C71.9594 16.9253 71.3101 17.6609 70.9201 18.5008L72.7342 19.343C72.9536 18.8703 73.359 18.3716 74.0197 17.8623L72.7987 16.2783ZM72.1635 17.9801L69.5385 17.0426L68.8658 18.9261L71.4908 19.8636L72.1635 17.9801ZM70.1213 18.3783C70.5369 17.4085 71.0683 16.7048 71.6922 16.2182L70.4621 14.6412C69.5235 15.3733 68.8049 16.3727 68.283 17.5905L70.1213 18.3783ZM71.6932 16.2174C72.3793 15.6808 73.1157 15.3146 73.9074 15.1083L73.4032 13.1729C72.3355 13.4511 71.3532 13.9442 70.4611 14.642L71.6932 16.2174ZM73.9129 15.1069C74.7723 14.8777 75.6075 14.7656 76.4209 14.7656V12.7656C75.4217 12.7656 74.4133 12.9036 73.3976 13.1744L73.9129 15.1069ZM76.4209 14.7656C76.9212 14.7656 77.5215 14.8268 78.2288 14.9594L78.5974 12.9937C77.8046 12.8451 77.0768 12.7656 76.4209 12.7656V14.7656ZM78.2405 14.9615C78.8697 15.0718 79.4851 15.3031 80.09 15.6661L81.119 13.9511C80.3177 13.4703 79.4721 13.1469 78.5857 12.9916L78.2405 14.9615ZM80.0942 15.6686C80.6266 15.9845 81.1 16.478 81.498 17.201L83.2501 16.2365C82.7106 15.2564 82.0043 14.4764 81.1148 13.9486L80.0942 15.6686ZM81.498 17.201C81.856 17.8514 82.0771 18.8058 82.0771 20.1406H84.0771C84.0771 18.6161 83.8295 17.2892 83.2501 16.2365L81.498 17.201ZM82.0771 20.1406V32H84.0771V20.1406H82.0771ZM83.0771 31H80.3115V33H83.0771V31ZM81.3115 32V29.5625H79.3115V32H81.3115ZM80.3115 28.5625H80.1709V30.5625H80.3115V28.5625ZM79.2694 29.1298C79.1454 29.3881 78.9115 29.7172 78.5201 30.1156L79.9467 31.5172C80.4303 31.025 80.8214 30.5182 81.0724 29.9952L79.2694 29.1298ZM78.5201 30.1156C78.1942 30.4472 77.7301 30.7601 77.0922 31.0345L77.8824 32.8718C78.6976 32.5211 79.3976 32.0762 79.9467 31.5172L78.5201 30.1156ZM77.0922 31.0345C76.5238 31.279 75.7799 31.4219 74.8271 31.4219V33.4219C75.9681 33.4219 76.9977 33.2523 77.8824 32.8718L77.0922 31.0345ZM75.249 30.9375C76.4717 30.9375 77.5753 30.6972 78.5118 30.1607L77.5175 28.4253C76.954 28.7481 76.2139 28.9375 75.249 28.9375V30.9375ZM78.5079 30.1629C79.4049 29.6543 80.1147 28.9757 80.5969 28.1196L78.8543 27.1382C78.5708 27.6415 78.14 28.0723 77.5214 28.4231L78.5079 30.1629ZM80.5926 28.1272C81.0663 27.303 81.3115 26.4173 81.3115 25.4844H79.3115C79.3115 26.0515 79.1662 26.5954 78.8586 27.1306L80.5926 28.1272ZM81.3115 25.4844V22.9531H79.3115V25.4844H81.3115ZM79.5433 22.3129C79.5799 22.269 79.6089 22.2478 79.6136 22.2444C79.619 22.2405 79.6111 22.2468 79.5831 22.2608C79.5247 22.2901 79.4208 22.332 79.2559 22.3805L79.8203 24.2992C80.0538 24.2305 80.2781 24.1494 80.4775 24.0497C80.6666 23.9551 80.8967 23.813 81.0797 23.5933L79.5433 22.3129ZM79.2685 22.3769C78.9207 22.4743 78.504 22.5648 78.0143 22.6464L78.3431 24.6192C78.8847 24.5289 79.3743 24.4242 79.8077 24.3028L79.2685 22.3769ZM78.0267 22.6444C77.5264 22.7214 77.0384 22.7906 76.5625 22.852L76.8184 24.8355C77.3112 24.7719 77.8154 24.7005 78.3308 24.6212L78.0267 22.6444ZM76.5764 22.8503C76.0972 22.9053 75.7044 22.9528 75.3998 22.9929L75.6607 24.9758C75.9499 24.9378 76.3305 24.8916 76.8044 24.8372L76.5764 22.8503ZM75.4009 22.9928C74.6237 23.0942 73.8875 23.2602 73.1949 23.4939L73.8344 25.3889C74.3918 25.2008 74.9993 25.0621 75.6596 24.976L75.4009 22.9928ZM73.202 23.4915C72.4484 23.7396 71.795 24.1317 71.2804 24.6883L72.7489 26.046C73 25.7745 73.3466 25.5495 73.8273 25.3913L73.202 23.4915ZM71.2798 24.6889C70.6917 25.3261 70.4521 26.1476 70.4521 27.0312H72.4521C72.4521 26.5086 72.5876 26.2208 72.7495 26.0455L71.2798 24.6889ZM70.4521 27.0312C70.4521 28.2777 70.9353 29.3311 71.9493 30.0331L73.0878 28.3887C72.6799 28.1064 72.4521 27.7067 72.4521 27.0312H70.4521ZM71.9597 30.0402C72.8832 30.6626 74.0021 30.9375 75.249 30.9375V28.9375C74.2928 28.9375 73.5914 28.7281 73.0774 28.3817L71.9597 30.0402ZM90.8906 8H91.8906V7H90.8906V8ZM90.8906 32V33H91.8906V32H90.8906ZM88.125 32H87.125V33H88.125V32ZM88.125 8V7H87.125V8H88.125ZM89.8906 8V32H91.8906V8H89.8906ZM90.8906 31H88.125V33H90.8906V31ZM89.125 32V8H87.125V32H89.125ZM88.125 9H90.8906V7H88.125V9Z" fill="white"/>
<path d="M100.266 33L93.7031 9H96.6563L101.672 28.5469H101.906L107.016 9H110.297L115.406 28.5469H115.641L120.656 9H123.609L117.047 33H114.047L108.75 13.875H108.563L103.266 33H100.266ZM130.477 33.4219C129.336 33.4219 128.301 33.207 127.371 32.7773C126.441 32.3398 125.703 31.7109 125.156 30.8906C124.609 30.0625 124.336 29.0625 124.336 27.8906C124.336 26.8594 124.539 26.0234 124.945 25.3828C125.352 24.7344 125.895 24.2266 126.574 23.8594C127.254 23.4922 128.004 23.2187 128.824 23.0391C129.652 22.8516 130.484 22.7031 131.32 22.5938C132.414 22.4531 133.301 22.3477 133.98 22.2773C134.668 22.1992 135.168 22.0703 135.48 21.8906C135.801 21.7109 135.961 21.3984 135.961 20.9531V20.8594C135.961 19.7031 135.645 18.8047 135.012 18.1641C134.387 17.5234 133.438 17.2031 132.164 17.2031C130.844 17.2031 129.809 17.4922 129.059 18.0703C128.309 18.6484 127.781 19.2656 127.477 19.9219L124.852 18.9844C125.32 17.8906 125.945 17.0391 126.727 16.4297C127.516 15.8125 128.375 15.3828 129.305 15.1406C130.242 14.8906 131.164 14.7656 132.07 14.7656C132.648 14.7656 133.313 14.8359 134.063 14.9766C134.82 15.1094 135.551 15.3867 136.254 15.8086C136.965 16.2305 137.555 16.8672 138.023 17.7187C138.492 18.5703 138.727 19.7109 138.727 21.1406V33H135.961V30.5625H135.82C135.633 30.9531 135.32 31.3711 134.883 31.8164C134.445 32.2617 133.863 32.6406 133.137 32.9531C132.41 33.2656 131.523 33.4219 130.477 33.4219ZM130.898 30.9375C131.992 30.9375 132.914 30.7227 133.664 30.293C134.422 29.8633 134.992 29.3086 135.375 28.6289C135.766 27.9492 135.961 27.2344 135.961 26.4844V23.9531C135.844 24.0937 135.586 24.2227 135.188 24.3398C134.797 24.4492 134.344 24.5469 133.828 24.6328C133.32 24.7109 132.824 24.7812 132.34 24.8437C131.863 24.8984 131.477 24.9453 131.18 24.9844C130.461 25.0781 129.789 25.2305 129.164 25.4414C128.547 25.6445 128.047 25.9531 127.664 26.3672C127.289 26.7734 127.102 27.3281 127.102 28.0312C127.102 28.9922 127.457 29.7187 128.168 30.2109C128.887 30.6953 129.797 30.9375 130.898 30.9375ZM157.849 15L151.192 33H148.38L141.724 15H144.724L149.692 29.3437H149.88L154.849 15H157.849ZM168.401 33.375C166.667 33.375 165.171 32.9922 163.913 32.2266C162.663 31.4531 161.698 30.375 161.019 28.9922C160.347 27.6016 160.011 25.9844 160.011 24.1406C160.011 22.2969 160.347 20.6719 161.019 19.2656C161.698 17.8516 162.644 16.75 163.854 15.9609C165.073 15.1641 166.495 14.7656 168.12 14.7656C169.058 14.7656 169.983 14.9219 170.897 15.2344C171.812 15.5469 172.644 16.0547 173.394 16.7578C174.144 17.4531 174.741 18.375 175.187 19.5234C175.632 20.6719 175.854 22.0859 175.854 23.7656V24.9375H161.979V22.5469H173.042C173.042 21.5312 172.839 20.625 172.433 19.8281C172.034 19.0312 171.464 18.4023 170.722 17.9414C169.987 17.4805 169.12 17.25 168.12 17.25C167.019 17.25 166.065 17.5234 165.261 18.0703C164.464 18.6094 163.851 19.3125 163.421 20.1797C162.991 21.0469 162.776 21.9766 162.776 22.9687V24.5625C162.776 25.9219 163.011 27.0742 163.479 28.0195C163.956 28.957 164.616 29.6719 165.46 30.1641C166.304 30.6484 167.284 30.8906 168.401 30.8906C169.128 30.8906 169.784 30.7891 170.37 30.5859C170.964 30.375 171.476 30.0625 171.905 29.6484C172.335 29.2266 172.667 28.7031 172.901 28.0781L175.573 28.8281C175.292 29.7344 174.819 30.5312 174.155 31.2187C173.491 31.8984 172.671 32.4297 171.694 32.8125C170.718 33.1875 169.62 33.375 168.401 33.375ZM192.812 19.0312L190.327 19.7344C190.171 19.3203 189.94 18.918 189.636 18.5273C189.339 18.1289 188.933 17.8008 188.417 17.543C187.901 17.2852 187.241 17.1562 186.437 17.1562C185.335 17.1562 184.417 17.4102 183.683 17.918C182.956 18.418 182.593 19.0547 182.593 19.8281C182.593 20.5156 182.843 21.0586 183.343 21.457C183.843 21.8555 184.624 22.1875 185.687 22.4531L188.358 23.1094C189.968 23.5 191.167 24.0977 191.956 24.9023C192.745 25.6992 193.14 26.7266 193.14 27.9844C193.14 29.0156 192.843 29.9375 192.249 30.75C191.663 31.5625 190.843 32.2031 189.788 32.6719C188.733 33.1406 187.507 33.375 186.108 33.375C184.272 33.375 182.753 32.9766 181.55 32.1797C180.347 31.3828 179.585 30.2187 179.265 28.6875L181.89 28.0312C182.14 29 182.612 29.7266 183.308 30.2109C184.011 30.6953 184.929 30.9375 186.062 30.9375C187.351 30.9375 188.374 30.6641 189.132 30.1172C189.897 29.5625 190.28 28.8984 190.28 28.125C190.28 27.5 190.062 26.9766 189.624 26.5547C189.187 26.125 188.515 25.8047 187.608 25.5937L184.608 24.8906C182.96 24.5 181.749 23.8945 180.976 23.0742C180.21 22.2461 179.827 21.2109 179.827 19.9687C179.827 18.9531 180.112 18.0547 180.683 17.2734C181.261 16.4922 182.046 15.8789 183.038 15.4336C184.038 14.9883 185.171 14.7656 186.437 14.7656C188.218 14.7656 189.616 15.1562 190.632 15.9375C191.655 16.7187 192.382 17.75 192.812 19.0312Z" fill="white"/>
</svg>