<svg xmlns="http://www.w3.org/2000/svg" width="448" height="448" viewBox="0 0 448 448" fill="none">
<path d="M112 256H16C7.16344 256 0 263.163 0 272V432C0 440.837 7.16344 448 16 448H112C120.837 448 128 440.837 128 432V272C128 263.163 120.837 256 112 256Z" fill="#EAEAEA"/>
<path d="M432 128H336C327.163 128 320 135.163 320 144V432C320 440.837 327.163 448 336 448H432C440.837 448 448 440.837 448 432V144C448 135.163 440.837 128 432 128Z" fill="#EAEAEA"/>
<path d="M272 0H176C167.163 0 160 7.16344 160 16V432C160 440.837 167.163 448 176 448H272C280.837 448 288 440.837 288 432V16C288 7.16344 280.837 0 272 0Z" fill="#EAEAEA"/>
</svg>