<svg xmlns="http://www.w3.org/2000/svg" width="354" height="482" viewBox="0 0 354 482" fill="none">
<path d="M32.3995 1.56164e-05C28.1775 -0.000577932 23.9967 0.830581 20.096 2.44602C16.1953 4.06146 12.651 6.42955 9.6656 9.415C6.68331 12.3986 4.31814 15.9406 2.70526 19.8387C1.09237 23.7367 0.263372 27.9144 0.26563 32.1329V460.036C0.26563 472.166 10.0666 481.999 22.1966 481.999H22.2776C25.4878 482 28.6665 481.366 31.6307 480.133C34.5948 478.901 37.2858 477.094 39.5485 474.817C60.8365 453.545 123.657 390.724 149.605 364.825C156.835 357.555 166.715 353.466 176.999 353.466C187.282 353.466 197.163 357.555 204.392 364.825C230.42 390.805 293.562 453.931 314.61 475.01C319.108 479.485 325.132 481.999 331.479 481.999C343.771 481.999 353.732 472.045 353.732 459.763V32.1329C353.734 27.9124 352.905 23.7327 351.291 19.833C349.677 15.9333 347.31 12.3899 344.325 9.4056C341.341 6.42127 337.797 4.05451 333.898 2.44062C329.998 0.826735 325.818 -0.0026136 321.598 1.56164e-05H32.3995Z" fill="#EAEAEA"/>
</svg>