<svg xmlns="http://www.w3.org/2000/svg" width="354" height="482" viewBox="0 0 354 482" fill="none">
<path d="M32.3995 0.00152624C28.1775 0.000932688 23.9967 0.832092 20.096 2.44753C16.1953 4.06297 12.651 6.43106 9.6656 9.41651C6.68331 12.4001 4.31814 15.9421 2.70526 19.8402C1.09237 23.7382 0.263372 27.9159 0.26563 32.1344V460.037C0.26563 472.167 10.0666 482 22.1966 482H22.2776C25.4878 482.001 28.6665 481.367 31.6307 480.135C34.5948 478.902 37.2858 477.095 39.5485 474.818C60.8365 453.546 123.657 390.725 149.605 364.826C156.835 357.556 166.715 353.467 176.999 353.467C187.282 353.467 197.163 357.556 204.392 364.826C230.42 390.806 293.562 453.932 314.61 475.011C319.108 479.486 325.132 482 331.479 482C343.771 482 353.732 472.046 353.732 459.764V32.1344C353.734 27.9139 352.905 23.7342 351.291 19.8345C349.677 15.9348 347.31 12.3914 344.325 9.40711C341.341 6.42278 337.797 4.05602 333.898 2.44213C329.998 0.828246 325.818 -0.00110298 321.598 0.00152624H32.3995Z" fill="#222222"/>
</svg>