<!-- explore dark - linear -->
<!-- <svg xmlns="http://www.w3.org/2000/svg" width="448" height="448" viewBox="0 0 448 448" fill="none">
<path d="M224 0C179.697 0 136.389 13.1374 99.5524 37.7508C62.7158 62.3642 34.0051 97.3483 17.0511 138.279C0.0970554 179.21 -4.33889 224.248 4.3042 267.7C12.9473 311.152 34.2812 351.065 65.6082 382.392C96.9351 413.719 136.848 435.053 180.3 443.696C223.752 452.339 268.791 447.903 309.721 430.949C350.652 413.995 385.636 385.284 410.249 348.448C434.863 311.611 448 268.303 448 224C448 164.592 424.4 107.616 382.392 65.6081C340.384 23.5999 283.409 0 224 0ZM224 416C186.026 416 148.905 404.739 117.331 383.642C85.7564 362.545 61.1473 332.559 46.6152 297.475C32.0832 262.392 28.281 223.787 35.6893 186.543C43.0977 149.298 61.3839 115.087 88.2356 88.2355C115.087 61.3838 149.298 43.0976 186.543 35.6892C223.787 28.2809 262.392 32.0831 297.475 46.6151C332.559 61.1472 362.545 85.7563 383.642 117.331C404.739 148.905 416 186.026 416 224C416 274.922 395.772 323.758 359.765 359.764C323.758 395.771 274.922 416 224 416ZM318.72 107.84L182.88 176C179.811 177.622 177.302 180.131 175.68 183.2L107.84 318.72C106.644 321.162 106.089 323.868 106.229 326.584C106.369 329.299 107.199 331.934 108.64 334.24C110.081 336.546 112.086 338.446 114.466 339.762C116.845 341.078 119.521 341.765 122.24 341.76C124.678 341.77 127.086 341.223 129.28 340.16L265.12 272C268.189 270.378 270.698 267.869 272.32 264.8L340.16 128.96C341.64 125.96 342.143 122.572 341.598 119.271C341.053 115.971 339.487 112.924 337.12 110.56C334.719 108.246 331.655 106.739 328.356 106.252C325.057 105.764 321.688 106.319 318.72 107.84ZM246.08 246.08L157.92 290.08L201.92 201.92L290.08 157.92L246.08 246.08Z" fill="#222222"/>
</svg> -->

<!-- bold -->
<svg xmlns="http://www.w3.org/2000/svg" width="512" height="512" viewBox="0 0 512 512" fill="none">
<path d="M256 284.16C271.616 284.16 284.161 271.488 284.161 255.999C284.161 240.511 271.617 227.839 256 227.839C240.512 227.839 227.84 240.511 227.84 255.999C227.84 271.488 240.513 284.16 256 284.16Z" fill="#222222"/>
<path d="M255.999 0C114.56 0 0 114.56 0 255.999C0 397.311 114.56 511.999 255.999 511.999C397.438 511.999 511.999 397.311 511.999 255.999C512 114.56 397.44 0 255.999 0ZM312.063 312.063L102.4 409.599L199.935 199.935L409.599 102.4L312.063 312.063Z" fill="#222222"/>
</svg>