<svg xmlns="http://www.w3.org/2000/svg" width="428" height="428" viewBox="0 0 428 428" fill="none">
<path d="M13.0391 363.547L12.6124 363.973C6.85242 351.387 3.22576 337.093 1.73242 321.307C3.22576 336.88 7.27909 350.96 13.0391 363.547ZM149.999 179.44C163.465 179.44 176.379 174.091 185.901 164.569C195.423 155.047 200.772 142.133 200.772 128.667C200.772 115.201 195.423 102.286 185.901 92.7645C176.379 83.2427 163.465 77.8934 149.999 77.8934C136.533 77.8934 123.619 83.2427 114.097 92.7645C104.575 102.286 99.2258 115.201 99.2258 128.667C99.2258 142.133 104.575 155.047 114.097 164.569C123.619 174.091 136.533 179.44 149.999 179.44Z" fill="#222222"/>
<path d="M303.386 0.666687H124.613C46.9593 0.666687 0.666016 46.96 0.666016 124.613V303.387C0.666016 326.64 4.71935 346.907 12.6127 363.973C30.9593 404.507 70.2127 427.333 124.613 427.333H303.386C381.039 427.333 427.333 381.04 427.333 303.387V124.613C427.333 46.96 381.039 0.666687 303.386 0.666687ZM392.559 224.667C375.919 210.373 349.039 210.373 332.399 224.667L243.653 300.827C227.013 315.12 200.133 315.12 183.493 300.827L176.239 294.853C161.093 281.627 136.986 280.347 119.919 291.867L40.1327 345.413C35.4393 333.467 32.666 319.6 32.666 303.387V124.613C32.666 64.4534 64.4527 32.6667 124.613 32.6667H303.386C363.546 32.6667 395.333 64.4534 395.333 124.613V227.013L392.559 224.667Z" fill="#222222"/>
</svg>