<svg xmlns="http://www.w3.org/2000/svg" width="427" height="427" viewBox="0 0 427 427" fill="none">
<path d="M12.3731 362.88L11.9464 363.307C6.18641 350.72 2.55974 336.427 1.06641 320.64C2.55974 336.213 6.61307 350.293 12.3731 362.88ZM149.333 178.773C162.799 178.773 175.713 173.424 185.235 163.902C194.757 154.38 200.106 141.466 200.106 128C200.106 114.534 194.757 101.62 185.235 92.0978C175.713 82.576 162.799 77.2267 149.333 77.2267C135.867 77.2267 122.953 82.576 113.431 92.0978C103.909 101.62 98.5597 114.534 98.5597 128C98.5597 141.466 103.909 154.38 113.431 163.902C122.953 173.424 135.867 178.773 149.333 178.773Z" fill="#EAEAEA"/>
<path d="M302.72 0H123.947C46.2933 0 0 46.2933 0 123.947V302.72C0 325.973 4.05333 346.24 11.9467 363.307C30.2933 403.84 69.5467 426.667 123.947 426.667H302.72C380.373 426.667 426.667 380.373 426.667 302.72V123.947C426.667 46.2933 380.373 0 302.72 0ZM391.893 224C375.253 209.707 348.373 209.707 331.733 224L242.987 300.16C226.347 314.453 199.467 314.453 182.827 300.16L175.573 294.187C160.427 280.96 136.32 279.68 119.253 291.2L39.4667 344.747C34.7733 332.8 32 318.933 32 302.72V123.947C32 63.7867 63.7867 32 123.947 32H302.72C362.88 32 394.667 63.7867 394.667 123.947V226.347L391.893 224Z" fill="#EAEAEA"/>
</svg>