<svg xmlns="http://www.w3.org/2000/svg" width="358" height="410" viewBox="0 0 358 410" fill="none">
<path d="M93.0474 19.2187C93.0474 14.1216 95.0723 9.23324 98.6765 5.62903C102.281 2.02481 107.169 -2.18853e-05 112.266 -2.14397e-05L293.445 -5.60052e-06C310.43 0.0190714 326.713 6.77462 338.723 18.7845C350.733 30.7945 357.489 47.0779 357.508 64.0625L357.508 345.938C357.489 362.922 350.733 379.206 338.723 391.215C326.713 403.225 310.43 409.981 293.445 410L112.266 410C107.169 410 102.281 407.975 98.6764 404.371C95.0722 400.767 93.0474 395.878 93.0474 390.781C93.0474 385.684 95.0722 380.796 98.6764 377.192C102.281 373.587 107.169 371.562 112.266 371.562L293.445 371.562C300.239 371.555 306.753 368.853 311.557 364.049C316.361 359.245 319.063 352.731 319.07 345.937L319.07 64.0625C319.063 57.2685 316.361 50.7549 311.557 45.9509C306.753 41.1468 300.239 38.4447 293.445 38.4375L112.266 38.4375C107.169 38.4375 102.281 36.4126 98.6765 32.8084C95.0723 29.2042 93.0474 24.3159 93.0474 19.2187ZM6.12021 218.589L97.4501 309.92C99.2274 311.737 101.348 313.184 103.688 314.176C106.028 315.169 108.542 315.687 111.084 315.701C113.626 315.715 116.145 315.225 118.496 314.258C120.847 313.292 122.983 311.869 124.781 310.071C126.578 308.274 128.001 306.138 128.967 303.786C129.933 301.435 130.423 298.916 130.409 296.374C130.394 293.832 129.876 291.318 128.883 288.978C127.891 286.638 126.444 284.518 124.626 282.741L66.1075 224.219L217.404 224.219C222.501 224.219 227.389 222.194 230.994 218.59C234.598 214.985 236.623 210.097 236.623 205C236.623 199.903 234.598 195.015 230.994 191.41C227.389 187.806 222.501 185.781 217.404 185.781L66.1083 185.781L124.629 127.26C126.422 125.477 127.845 123.358 128.818 121.024C129.79 118.691 130.292 116.188 130.295 113.66C130.299 111.131 129.803 108.627 128.838 106.291C127.872 103.954 126.454 101.832 124.666 100.044C122.879 98.2561 120.756 96.8386 118.419 95.8727C116.083 94.9068 113.579 94.4114 111.051 94.4148C108.522 94.4182 106.02 94.9205 103.686 95.8928C101.352 96.865 99.233 98.2882 97.4501 100.081L6.12021 191.41C2.51603 195.014 0.491211 199.902 0.491211 205C0.491211 210.097 2.51603 214.985 6.12021 218.589Z" fill="#FC1717"/>
</svg>