<!-- <svg xmlns="http://www.w3.org/2000/svg" width="428" height="512" viewBox="0 0 428 512" fill="none">
<path d="M246.001 89.1733C243.172 89.1733 240.459 88.0495 238.458 86.0491C236.458 84.0488 235.334 81.3356 235.334 78.5067V42.6667C235.334 30.912 225.755 21.3333 214.001 21.3333C202.246 21.3333 192.667 30.912 192.667 42.6667V78.5067C192.667 81.3356 191.544 84.0488 189.543 86.0491C187.543 88.0495 184.83 89.1733 182.001 89.1733C179.172 89.1733 176.459 88.0495 174.458 86.0491C172.458 84.0488 171.334 81.3356 171.334 78.5067V42.6667C171.334 19.136 190.47 0 214.001 0C237.531 0 256.667 19.136 256.667 42.6667V78.5067C256.667 81.3356 255.544 84.0488 253.543 86.0491C251.543 88.0495 248.83 89.1733 246.001 89.1733ZM214.001 512C172.827 512 139.334 478.507 139.334 437.333C139.334 434.504 140.458 431.791 142.458 429.791C144.459 427.79 147.172 426.667 150.001 426.667C152.83 426.667 155.543 427.79 157.543 429.791C159.544 431.791 160.667 434.504 160.667 437.333C160.667 466.731 184.603 490.667 214.001 490.667C243.398 490.667 267.334 466.731 267.334 437.333C267.334 434.504 268.458 431.791 270.458 429.791C272.459 427.79 275.172 426.667 278.001 426.667C280.83 426.667 283.543 427.79 285.543 429.791C287.544 431.791 288.667 434.504 288.667 437.333C288.667 478.507 255.174 512 214.001 512Z" fill="#EAEAEA"/>
<path d="M395.333 448H32.6665C26.1357 447.977 19.7678 445.959 14.4159 442.216C9.06388 438.474 4.98332 433.185 2.72074 427.059C0.458162 420.932 0.121611 414.261 1.75616 407.938C3.39071 401.615 6.91831 395.942 11.8665 391.68C28.4142 377.751 41.7148 360.37 50.8357 340.757C59.9567 321.145 64.6773 299.774 64.6665 278.144V213.333C64.6665 130.987 131.653 64 214 64C296.346 64 363.333 130.987 363.333 213.333V278.144C363.333 321.941 382.512 363.264 415.962 391.531C420.968 395.765 424.553 401.433 426.234 407.771C427.915 414.108 427.609 420.808 425.36 426.966C423.11 433.125 419.024 438.444 413.654 442.205C408.284 445.967 401.889 447.99 395.333 448ZM214 85.3333C143.408 85.3333 85.9998 142.741 85.9998 213.333V278.144C86.0234 302.84 80.6494 327.242 70.254 349.643C59.8585 372.045 44.6928 391.903 25.8185 407.829C24.1423 409.236 22.9393 411.124 22.3727 413.238C21.806 415.351 21.903 417.588 22.6506 419.644C23.3982 421.701 24.7602 423.478 26.5519 424.734C28.3436 425.99 30.4783 426.665 32.6665 426.667H395.333C397.514 426.667 399.642 425.999 401.431 424.752C403.22 423.506 404.585 421.741 405.34 419.695C406.096 417.65 406.206 415.422 405.656 413.312C405.107 411.202 403.924 409.311 402.266 407.893C383.375 391.963 368.193 372.096 357.783 349.684C347.373 327.272 341.986 302.856 342 278.144V213.333C342 142.741 284.592 85.3333 214 85.3333Z" fill="#EAEAEA"/>
</svg> -->

<!-- bold -->

<svg xmlns="http://www.w3.org/2000/svg" width="406" height="470" viewBox="0 0 406 470" fill="none">
<path d="M202.421 0C159.986 0 119.289 16.8571 89.2835 46.8629C59.2777 76.8687 42.4206 117.565 42.4206 160V284.8L7.00726 338.133C2.76259 344.678 0.354967 352.243 0.0363302 360.037C-0.282307 367.831 1.49976 375.567 5.19604 382.437C8.89233 389.306 14.367 395.055 21.047 399.083C27.7271 403.112 35.367 405.27 43.1673 405.333H361.674C369.525 405.307 377.222 403.158 383.95 399.114C390.679 395.069 396.188 389.28 399.895 382.36C403.601 375.439 405.366 367.645 405.003 359.802C404.641 351.96 402.163 344.362 397.834 337.813L362.421 284.8V160C362.421 117.565 345.564 76.8687 315.558 46.8629C285.552 16.8571 244.855 0 202.421 0ZM202.421 469.333C215.643 469.318 228.536 465.208 239.328 457.568C250.119 449.928 258.28 439.133 262.687 426.667H142.154C146.561 439.133 154.722 449.928 165.513 457.568C176.305 465.208 189.198 469.318 202.421 469.333Z" fill="#EAEAEA"/>
</svg>