<!-- <svg xmlns="http://www.w3.org/2000/svg" width="428" height="512" viewBox="0 0 428 512" fill="none">
<path d="M246.001 89.1733C243.172 89.1733 240.459 88.0495 238.458 86.0491C236.458 84.0488 235.334 81.3356 235.334 78.5067V42.6667C235.334 30.912 225.755 21.3333 214.001 21.3333C202.246 21.3333 192.667 30.912 192.667 42.6667V78.5067C192.667 81.3356 191.544 84.0488 189.543 86.0491C187.543 88.0495 184.83 89.1733 182.001 89.1733C179.172 89.1733 176.459 88.0495 174.458 86.0491C172.458 84.0488 171.334 81.3356 171.334 78.5067V42.6667C171.334 19.136 190.47 0 214.001 0C237.531 0 256.667 19.136 256.667 42.6667V78.5067C256.667 81.3356 255.544 84.0488 253.543 86.0491C251.543 88.0495 248.83 89.1733 246.001 89.1733ZM214.001 512C172.827 512 139.334 478.507 139.334 437.333C139.334 434.504 140.458 431.791 142.458 429.791C144.459 427.79 147.172 426.667 150.001 426.667C152.83 426.667 155.543 427.79 157.543 429.791C159.544 431.791 160.667 434.504 160.667 437.333C160.667 466.731 184.603 490.667 214.001 490.667C243.398 490.667 267.334 466.731 267.334 437.333C267.334 434.504 268.458 431.791 270.458 429.791C272.459 427.79 275.172 426.667 278.001 426.667C280.83 426.667 283.543 427.79 285.543 429.791C287.544 431.791 288.667 434.504 288.667 437.333C288.667 478.507 255.174 512 214.001 512Z" fill="#222222"/>
<path d="M395.333 448H32.6665C26.1357 447.977 19.7678 445.959 14.4159 442.216C9.06388 438.474 4.98332 433.185 2.72074 427.059C0.458162 420.932 0.121611 414.261 1.75616 407.938C3.39071 401.615 6.91831 395.942 11.8665 391.68C28.4142 377.751 41.7148 360.37 50.8357 340.757C59.9567 321.145 64.6773 299.774 64.6665 278.144V213.333C64.6665 130.987 131.653 64 214 64C296.346 64 363.333 130.987 363.333 213.333V278.144C363.333 321.941 382.512 363.264 415.962 391.531C420.968 395.765 424.553 401.433 426.234 407.771C427.915 414.108 427.609 420.808 425.36 426.966C423.11 433.125 419.024 438.444 413.654 442.205C408.284 445.967 401.889 447.99 395.333 448ZM214 85.3333C143.408 85.3333 85.9998 142.741 85.9998 213.333V278.144C86.0234 302.84 80.6494 327.242 70.254 349.643C59.8585 372.045 44.6928 391.903 25.8185 407.829C24.1423 409.236 22.9393 411.124 22.3727 413.238C21.806 415.351 21.903 417.588 22.6506 419.644C23.3982 421.701 24.7602 423.478 26.5519 424.734C28.3436 425.99 30.4783 426.665 32.6665 426.667H395.333C397.514 426.667 399.642 425.999 401.431 424.752C403.22 423.506 404.585 421.741 405.34 419.695C406.096 417.65 406.206 415.422 405.656 413.312C405.107 411.202 403.924 409.311 402.266 407.893C383.375 391.963 368.193 372.096 357.783 349.684C347.373 327.272 341.986 302.856 342 278.144V213.333C342 142.741 284.592 85.3333 214 85.3333Z" fill="#222222"/>
</svg> -->

<!-- bold -->

<svg xmlns="http://www.w3.org/2000/svg" width="406" height="470" viewBox="0 0 406 470" fill="none">
<path d="M203.001 0.333313C160.566 0.333313 119.869 17.1904 89.8636 47.1962C59.8578 77.2021 43.0007 117.899 43.0007 160.333V285.133L7.58734 338.467C3.34267 345.011 0.935046 352.576 0.616408 360.37C0.297771 368.164 2.07984 375.901 5.77612 382.77C9.47241 389.639 14.947 395.389 21.6271 399.417C28.3071 403.445 35.9471 405.603 43.7473 405.667H362.254C370.105 405.641 377.802 403.492 384.531 399.447C391.259 395.403 396.768 389.614 400.475 382.693C404.181 375.772 405.946 367.978 405.584 360.136C405.221 352.294 402.743 344.696 398.414 338.147L363.001 285.133V160.333C363.001 117.899 346.144 77.2021 316.138 47.1962C286.132 17.1904 245.435 0.333313 203.001 0.333313ZM203.001 469.667C216.223 469.652 229.116 465.541 239.908 457.901C250.7 450.261 258.86 439.466 263.267 427H142.734C147.141 439.466 155.302 450.261 166.094 457.901C176.885 465.541 189.778 469.652 203.001 469.667Z" fill="#222222"/>
</svg>