<svg xmlns="http://www.w3.org/2000/svg" width="354" height="354" viewBox="0 0 354 354" fill="none">
<g clip-path="url(#clip0_123_20)">
<path fill-rule="evenodd" clip-rule="evenodd" d="M177 354C166.6 354 158.093 345.493 158.093 335.093V195.907H18.9069C8.50685 195.907 0 187.4 0 177C0 166.6 8.50685 158.093 18.9069 158.093H158.093V18.9069C158.093 8.50685 166.6 0 177 0C187.4 0 195.907 8.50685 195.907 18.9069V158.093H335.093C345.493 158.093 354 166.6 354 177C354 187.4 345.493 195.907 335.093 195.907H195.907V335.093C195.907 345.493 187.4 354 177 354Z" fill="#222222"/>
</g>
<defs>
<clipPath id="clip0_123_20">
<rect width="354" height="354" fill="white"/>
</clipPath>
</defs>
</svg>