<svg xmlns="http://www.w3.org/2000/svg" width="480" height="475" viewBox="0 0 480 475" fill="none">
<path fill-rule="evenodd" clip-rule="evenodd" d="M270.321 10.2483L300.807 33.0682C309.145 39.3092 317.921 42.5032 328.32 43.0822L366.341 45.1972C389.108 46.4632 407.599 61.9782 412.799 84.1802L421.485 121.257C423.86 131.397 428.53 139.485 436.124 146.612L463.891 172.673C480.517 188.277 484.708 212.048 474.422 232.398L457.243 266.383C452.545 275.678 450.923 284.875 452.159 295.216L456.679 333.028C459.385 355.669 447.316 376.572 426.356 385.549L391.35 400.541C381.776 404.641 374.622 410.644 368.922 419.36L348.079 451.23C335.599 470.313 312.917 478.568 291.091 471.972L254.639 460.956C244.67 457.943 235.331 457.943 225.361 460.956L188.909 471.972C167.083 478.568 144.401 470.313 131.921 451.23L111.078 419.36C105.377 410.644 98.2234 404.641 88.6504 400.541L53.6424 385.547C32.6824 376.57 20.6134 355.667 23.3194 333.026L27.8394 295.214C29.0754 284.873 27.4534 275.676 22.7554 266.381L5.57638 232.396C-4.70962 212.047 -0.518621 188.276 16.1074 172.671L43.8744 146.61C51.4684 139.483 56.1374 131.395 58.5124 121.255L67.1984 84.1782C72.3984 61.9772 90.8894 46.4622 113.656 45.1952L151.677 43.0802C162.076 42.5022 170.852 39.3073 179.19 33.0662L209.676 10.2462C227.929 -3.41575 252.067 -3.41575 270.321 10.2483ZM220.551 250.167L187.467 217.083C178.892 208.508 164.983 208.508 156.409 217.083C147.834 225.658 147.834 239.566 156.409 248.141L205.07 296.801C213.645 305.375 227.554 305.376 236.128 296.801C265.458 267.47 294.456 237.81 323.651 208.345C332.164 199.753 332.137 185.889 323.556 177.356C314.974 168.821 301.07 168.845 292.548 177.452L220.551 250.167ZM239.998 73.5612C194.837 73.5612 153.95 91.8672 124.354 121.463C94.7584 151.06 76.4524 191.946 76.4524 237.107C76.4524 282.268 94.7584 323.155 124.354 352.751C153.95 382.347 194.837 400.653 239.998 400.653C285.159 400.653 326.046 382.347 355.642 352.751C385.238 323.155 403.544 282.268 403.544 237.107C403.544 191.946 385.238 151.059 355.642 121.463C326.046 91.8672 285.159 73.5612 239.998 73.5612ZM344.329 132.776C317.629 106.076 280.742 89.5612 239.998 89.5612C199.254 89.5612 162.367 106.076 135.667 132.776C108.967 159.476 92.4524 196.363 92.4524 237.107C92.4524 277.851 108.967 314.738 135.667 341.438C162.367 368.138 199.254 384.653 239.998 384.653C280.742 384.653 317.629 368.138 344.329 341.439C371.029 314.739 387.543 277.852 387.543 237.108C387.544 196.363 371.029 159.476 344.329 132.776Z" fill="#A54E07"/>
</svg>