<svg xmlns="http://www.w3.org/2000/svg" width="480" height="476" viewBox="0 0 480 476" fill="none">
<path fill-rule="evenodd" clip-rule="evenodd" d="M270.323 11.141L300.809 33.9609C309.147 40.2019 317.923 43.3959 328.322 43.9749L366.343 46.0899C389.11 47.3559 407.601 62.8709 412.801 85.0729L421.487 122.15C423.862 132.29 428.532 140.378 436.126 147.505L463.893 173.566C480.519 189.17 484.71 212.941 474.424 233.291L457.245 267.276C452.547 276.571 450.925 285.768 452.161 296.109L456.681 333.921C459.387 356.562 447.318 377.465 426.358 386.442L391.352 401.434C381.778 405.534 374.624 411.537 368.924 420.253L348.081 452.123C335.601 471.206 312.919 479.461 291.093 472.865L254.641 461.849C244.672 458.836 235.333 458.836 225.363 461.849L188.911 472.865C167.085 479.461 144.403 471.206 131.923 452.123L111.08 420.253C105.379 411.537 98.2253 405.534 88.6523 401.434L53.6443 386.44C32.6843 377.463 20.6153 356.56 23.3213 333.919L27.8413 296.107C29.0773 285.766 27.4553 276.569 22.7573 267.274L5.57833 233.289C-4.70767 212.94 -0.516668 189.169 16.1093 173.564L43.8763 147.503C51.4703 140.376 56.1393 132.288 58.5143 122.148L67.2003 85.0709C72.4003 62.8699 90.8913 47.3549 113.658 46.0879L151.679 43.9729C162.078 43.3949 170.854 40.2 179.192 33.959L209.678 11.1389C227.931 -2.52305 252.069 -2.52305 270.323 11.141ZM220.553 251.06L187.469 217.976C178.894 209.401 164.985 209.401 156.411 217.976C147.836 226.551 147.836 240.459 156.411 249.034L205.072 297.694C213.647 306.268 227.556 306.269 236.13 297.694C265.46 268.363 294.458 238.703 323.653 209.238C332.166 200.646 332.139 186.782 323.558 178.249C314.976 169.714 301.072 169.738 292.55 178.345L220.553 251.06ZM240 74.4539C194.839 74.4539 153.952 92.7599 124.356 122.356C94.7603 151.953 76.4543 192.839 76.4543 238C76.4543 283.161 94.7603 324.048 124.356 353.644C153.952 383.24 194.839 401.546 240 401.546C285.161 401.546 326.048 383.24 355.644 353.644C385.24 324.048 403.546 283.161 403.546 238C403.546 192.839 385.24 151.952 355.644 122.356C326.048 92.7599 285.161 74.4539 240 74.4539ZM344.331 133.669C317.631 106.969 280.744 90.4539 240 90.4539C199.256 90.4539 162.369 106.969 135.669 133.669C108.969 160.369 92.4543 197.256 92.4543 238C92.4543 278.744 108.969 315.631 135.669 342.331C162.369 369.031 199.256 385.546 240 385.546C280.744 385.546 317.631 369.031 344.331 342.332C371.031 315.632 387.545 278.745 387.545 238.001C387.546 197.256 371.031 160.369 344.331 133.669Z" fill="#222222"/>
</svg>