<svg xmlns="http://www.w3.org/2000/svg" width="404" height="404" viewBox="0 0 404 404" fill="none">
<path d="M60.4689 13.1086L139.646 92.2857H2.50313C5.30166 75.475 12.0036 59.5549 22.0706 45.8041C32.1376 32.0533 45.2891 20.8549 60.4689 13.1086ZM166.892 0.857125H110.572C107.097 0.857125 103.623 1.03998 100.149 1.22284L191.212 92.2857H258.32L166.892 0.857125ZM293.429 0.857125H218.823L310.252 92.2857H401.497C397.214 66.7236 384.004 43.5088 364.217 26.7684C344.43 10.028 319.347 0.846837 293.429 0.857125ZM174.243 304.875L265.671 254.59C268.538 253.011 270.929 250.692 272.594 247.875C274.259 245.057 275.137 241.844 275.137 238.571C275.137 235.299 274.259 232.086 272.594 229.268C270.929 226.451 268.538 224.132 265.671 222.553L174.243 172.267C171.459 170.736 168.323 169.956 165.146 170.005C161.969 170.054 158.86 170.931 156.124 172.547C153.389 174.164 151.122 176.466 149.547 179.226C147.972 181.986 147.144 185.108 147.143 188.286V288.857C147.144 292.035 147.972 295.157 149.547 297.917C151.122 300.677 153.389 302.979 156.124 304.595C158.86 306.212 161.969 307.088 165.146 307.138C168.323 307.187 171.459 306.407 174.243 304.875ZM403.143 128.857V293.429C403.119 322.519 391.552 350.411 370.982 370.982C350.412 391.552 322.519 403.119 293.429 403.143H110.572C81.4811 403.119 53.5889 391.552 33.0187 370.982C12.4486 350.411 0.881634 322.519 0.857422 293.429V128.857H403.143Z" fill="#222222"/>
</svg>