<svg xmlns="http://www.w3.org/2000/svg" width="403" height="403" viewBox="0 0 403 403" fill="none">
<path d="M59.6114 12.2514L138.789 91.4286H1.64571C4.44424 74.6179 11.1462 58.6978 21.2132 44.947C31.2802 31.1961 44.4317 19.9978 59.6114 12.2514ZM166.034 8.63739e-06H109.714C106.24 8.63739e-06 102.766 0.182865 99.2914 0.365723L190.354 91.4286H257.463L166.034 8.63739e-06ZM292.571 8.63739e-06H217.966L309.394 91.4286H400.64C396.356 65.8665 383.147 42.6517 363.36 25.9113C343.572 9.17089 318.49 -0.0102797 292.571 8.63739e-06ZM173.385 304.018L264.814 253.733C267.681 252.154 270.071 249.835 271.737 247.017C273.402 244.2 274.28 240.987 274.28 237.714C274.28 234.441 273.402 231.229 271.737 228.411C270.071 225.594 267.681 223.275 264.814 221.696L173.385 171.41C170.601 169.879 167.466 169.099 164.289 169.148C161.112 169.197 158.002 170.073 155.267 171.69C152.531 173.307 150.265 175.609 148.69 178.369C147.115 181.129 146.286 184.251 146.286 187.429V288C146.286 291.178 147.115 294.3 148.69 297.06C150.265 299.82 152.531 302.121 155.267 303.738C158.002 305.355 161.112 306.231 164.289 306.28C167.466 306.33 170.601 305.55 173.385 304.018ZM402.286 128V292.571C402.262 321.662 390.695 349.554 370.124 370.124C349.554 390.695 321.662 402.262 292.571 402.286H109.714C80.6237 402.262 52.7315 390.695 32.1613 370.124C11.5911 349.554 0.0242119 321.662 0 292.571V128H402.286Z" fill="#EAEAEA"/>
</svg>