<svg xmlns="http://www.w3.org/2000/svg" width="424" height="420" viewBox="0 0 424 420" fill="none">
<path d="M413.959 360.654L316.478 263.166C333.62 235.92 342.695 204.376 342.654 172.186C342.654 77.5614 265.945 0.862793 171.323 0.862793C76.7021 0.862793 0 77.5614 0 172.186C0 266.815 76.6986 343.506 171.323 343.506C206.321 343.551 240.485 332.827 269.179 312.79L365.499 409.118C368.679 412.3 372.457 414.823 376.615 416.542C380.773 418.26 385.23 419.141 389.729 419.134C394.23 419.142 398.688 418.261 402.848 416.542C407.007 414.823 410.787 412.3 413.97 409.118C420.393 402.689 424.001 393.972 423.999 384.884C423.997 375.795 420.386 367.08 413.959 360.654ZM171.323 288C107.368 288 55.517 236.152 55.517 172.193C55.517 108.234 107.368 56.3833 171.323 56.3833C235.282 56.3833 287.13 108.234 287.13 172.193C287.13 236.152 235.282 288 171.323 288Z" fill="#222222"/>
</svg>