<svg xmlns="http://www.w3.org/2000/svg" width="424" height="419" viewBox="0 0 424 419" fill="none">
<path d="M413.959 359.791L316.478 262.304C333.62 235.057 342.695 203.513 342.654 171.323C342.654 76.6986 265.945 0 171.323 0C76.7021 0 0 76.6986 0 171.323C0 265.952 76.6986 342.643 171.323 342.643C206.321 342.688 240.485 331.964 269.179 311.927L365.499 408.255C368.679 411.437 372.457 413.96 376.615 415.679C380.773 417.398 385.23 418.279 389.729 418.271C394.23 418.279 398.688 417.398 402.848 415.679C407.007 413.96 410.787 411.437 413.97 408.255C420.393 401.826 424.001 393.109 423.999 384.021C423.997 374.933 420.386 366.217 413.959 359.791ZM171.323 287.137C107.368 287.137 55.517 235.289 55.517 171.33C55.517 107.372 107.368 55.5205 171.323 55.5205C235.282 55.5205 287.13 107.372 287.13 171.33C287.13 235.289 235.282 287.137 171.323 287.137Z" fill="#EAEAEA"/>
</svg>