<svg xmlns="http://www.w3.org/2000/svg" width="480" height="456" viewBox="0 0 480 456" fill="none">
<path d="M451.36 161.44C442.024 160.084 433.114 156.639 425.294 151.362C417.473 146.085 410.944 139.112 406.193 130.961C401.441 122.811 398.589 113.694 397.849 104.289C397.11 94.8837 398.501 85.4328 401.92 76.64C404.094 70.8916 404.414 64.6071 402.836 58.6676C401.258 52.7281 397.861 47.4314 393.12 43.52C372.193 25.9466 348.372 12.1415 322.72 2.72C316.879 0.550124 310.502 0.279014 304.498 1.94529C298.493 3.61157 293.168 7.13023 289.28 12C283.429 19.4824 275.95 25.5342 267.412 29.6962C258.873 33.8582 249.499 36.0212 240 36.0212C230.502 36.0212 221.127 33.8582 212.589 29.6962C204.05 25.5342 196.572 19.4824 190.72 12C186.833 7.13023 181.507 3.61157 175.503 1.94529C169.499 0.279014 163.122 0.550124 157.28 2.72C133.595 11.4183 111.45 23.8412 91.6803 39.52C86.697 43.465 83.1077 48.9019 81.4378 55.0344C79.7679 61.167 80.1052 67.673 82.4003 73.6C86.0924 82.6254 87.6179 92.3905 86.8543 102.112C86.0907 111.833 83.0594 121.241 78.0035 129.579C72.9477 137.917 66.0079 144.955 57.741 150.126C49.4741 155.298 40.1102 158.461 30.4003 159.36C24.0965 160.034 18.1756 162.714 13.5093 167.006C8.84309 171.298 5.67811 176.974 4.48035 183.2C1.50111 197.947 0.000346246 212.955 0.000346246 228C-0.0215513 240.596 0.995228 253.172 3.04035 265.6C4.05818 272.025 7.16429 277.936 11.8784 282.419C16.5926 286.902 22.6522 289.707 29.1203 290.4C39.0435 291.331 48.5991 294.626 56.9876 300.008C65.3761 305.39 72.3533 312.704 77.3352 321.336C82.3172 329.968 85.1589 339.668 85.6226 349.624C86.0863 359.58 84.1584 369.502 80.0003 378.56C77.2792 384.452 76.6042 391.084 78.0826 397.403C79.5609 403.722 83.1079 409.367 88.1603 413.44C108.962 430.694 132.554 444.275 157.92 453.6C161.164 454.724 164.568 455.318 168 455.36C172.707 455.35 177.343 454.211 181.519 452.04C185.695 449.868 189.289 446.727 192 442.88C197.703 434.571 205.347 427.78 214.27 423.096C223.192 418.412 233.123 415.976 243.2 416C252.964 416.012 262.591 418.304 271.313 422.693C280.035 427.082 287.612 433.446 293.44 441.28C297.317 446.491 302.809 450.274 309.06 452.04C315.311 453.805 321.97 453.454 328 451.04C351.195 441.705 372.789 428.803 392 412.8C396.826 408.81 400.262 403.392 401.815 397.326C403.367 391.26 402.956 384.858 400.64 379.04C396.877 370.131 395.236 360.469 395.847 350.817C396.458 341.165 399.305 331.787 404.161 323.424C409.018 315.06 415.752 307.94 423.832 302.626C431.912 297.311 441.117 293.947 450.72 292.8C456.947 291.939 462.738 289.118 467.255 284.745C471.771 280.373 474.778 274.676 475.84 268.48C478.41 255.135 479.802 241.589 480 228C480.003 213.666 478.664 199.364 476 185.28C474.92 179.221 471.958 173.656 467.535 169.376C463.111 165.097 457.452 162.32 451.36 161.44ZM320 228C320 243.823 315.308 259.29 306.518 272.446C297.727 285.602 285.233 295.855 270.615 301.91C255.997 307.965 239.912 309.55 224.393 306.463C208.875 303.376 194.62 295.757 183.432 284.569C172.244 273.38 164.624 259.126 161.538 243.607C158.451 228.089 160.035 212.003 166.09 197.385C172.145 182.767 182.399 170.273 195.555 161.482C208.711 152.692 224.178 148 240 148C261.218 148 281.566 156.429 296.569 171.431C311.572 186.434 320 206.783 320 228Z" fill="#EAEAEA"/>
</svg>