<svg xmlns="http://www.w3.org/2000/svg" width="426" height="396" viewBox="0 0 426 396" fill="none">
<path d="M417.176 184.172L219.395 92.8885L21.614 1.60501C15.3154 -1.25521 7.79972 0.448752 3.41811 5.8649C1.27408 8.48839 0.0727153 11.7556 0.00650995 15.1431C-0.0596954 18.5306 1.01309 21.8423 3.05298 24.5476L133.132 197.986L3.05298 371.425C-1.14606 376.993 -0.993922 384.722 3.38768 390.107C6.33918 393.789 10.7512 395.767 15.2241 395.767C17.3845 395.767 19.5449 395.311 21.5835 394.367L417.145 211.8C422.561 209.305 426 203.92 426 197.986C426 192.053 422.561 186.667 417.176 184.172Z" fill="#222222"/>
</svg>