<svg xmlns="http://www.w3.org/2000/svg" width="426" height="396" viewBox="0 0 426 396" fill="none">
<path d="M417.176 183.939L219.395 92.6552L21.614 1.37173C15.3154 -1.48848 7.79972 0.215476 3.41811 5.63163C1.27408 8.25512 0.0727153 11.5224 0.00650995 14.9099C-0.0596954 18.2974 1.01309 21.6091 3.05298 24.3143L133.132 197.753L3.05298 371.191C-1.14606 376.76 -0.993922 384.488 3.38768 389.874C6.33918 393.556 10.7512 395.534 15.2241 395.534C17.3845 395.534 19.5449 395.077 21.5835 394.134L417.145 211.567C422.561 209.072 426 203.686 426 197.753C426 191.819 422.561 186.434 417.176 183.939Z" fill="#EAEAEA"/>
</svg>